<svg xmlns="http://www.w3.org/2000/svg" width="1440" height="900" viewBox="0 0 1440 900" role="img" aria-labelledby="title desc">
<title id="title">전체 강의 로드맵</title><desc id="desc">24개 Chapter를 8개의 학습 단계로 구성한 강의 로드맵</desc>
<rect width="1440" height="900" fill="#ffffff"/>
<style>.t{font-family:'Noto Sans KR','Malgun Gothic',sans-serif;fill:#102a72}.s{font-family:'Noto Sans KR','Malgun Gothic',sans-serif;fill:#374151}.h{font-family:'Noto Sans KR','Malgun Gothic',sans-serif;font-weight:700;fill:#143b7d}.num{font-family:Arial,sans-serif;font-weight:800;fill:#fff}</style>
<text x="720" y="76" text-anchor="middle" class="t" font-size="58" font-weight="800">전체 강의 로드맵</text>
<text x="720" y="120" text-anchor="middle" class="s" font-size="25">24개 Chapter를 8개의 학습 단계로 경험합니다.</text>
<g transform="translate(95 165)">
<g transform="translate(0 0)"><rect width="575" height="125" rx="22" fill="#eef4ff" stroke="#2f63df" stroke-width="2"/><circle cx="58" cy="58" r="38" fill="#2f63df"/><text x="58" y="70" text-anchor="middle" class="num" font-size="28">01</text><text x="120" y="53" class="h" font-size="31">AI와 Python 시작</text><text x="120" y="92" class="s" font-size="23">Ch01~03</text></g>
<g transform="translate(675 0)"><rect width="575" height="125" rx="22" fill="#effcf9" stroke="#15958f" stroke-width="2"/><circle cx="58" cy="58" r="38" fill="#15958f"/><text x="58" y="70" text-anchor="middle" class="num" font-size="28">02</text><text x="120" y="53" class="h" font-size="31">Python 기본 문법</text><text x="120" y="92" class="s" font-size="23">Ch04~08</text></g>
<path d="M625 62h40" stroke="#2f63df" stroke-width="6"/><path d="M650 48l15 14-15 14" fill="none" stroke="#2f63df" stroke-width="6"/>
<g transform="translate(0 165)"><rect width="575" height="125" rx="22" fill="#eef4ff" stroke="#2f63df" stroke-width="2"/><circle cx="58" cy="58" r="38" fill="#2f63df"/><text x="58" y="70" text-anchor="middle" class="num" font-size="28">03</text><text x="120" y="53" class="h" font-size="31">조건과 반복</text><text x="120" y="92" class="s" font-size="23">Ch09~10</text></g>
<g transform="translate(675 165)"><rect width="575" height="125" rx="22" fill="#effcf9" stroke="#15958f" stroke-width="2"/><circle cx="58" cy="58" r="38" fill="#15958f"/><text x="58" y="70" text-anchor="middle" class="num" font-size="28">04</text><text x="120" y="53" class="h" font-size="31">데이터 구조</text><text x="120" y="92" class="s" font-size="23">Ch11~13</text></g>
<path d="M625 227h40" stroke="#15958f" stroke-width="6"/><path d="M650 213l15 14-15 14" fill="none" stroke="#15958f" stroke-width="6"/>
<g transform="translate(0 330)"><rect width="575" height="125" rx="22" fill="#eef4ff" stroke="#2f63df" stroke-width="2"/><circle cx="58" cy="58" r="38" fill="#2f63df"/><text x="58" y="70" text-anchor="middle" class="num" font-size="28">05</text><text x="120" y="53" class="h" font-size="31">프로그램 구조화</text><text x="120" y="92" class="s" font-size="23">Ch14~18</text></g>
<g transform="translate(675 330)"><rect width="575" height="125" rx="22" fill="#effcf9" stroke="#15958f" stroke-width="2"/><circle cx="58" cy="58" r="38" fill="#15958f"/><text x="58" y="70" text-anchor="middle" class="num" font-size="28">06</text><text x="120" y="53" class="h" font-size="31">AI Pair Programming</text><text x="120" y="92" class="s" font-size="23">Ch19~20</text></g>
<path d="M625 392h40" stroke="#2f63df" stroke-width="6"/><path d="M650 378l15 14-15 14" fill="none" stroke="#2f63df" stroke-width="6"/>
<g transform="translate(0 495)"><rect width="575" height="125" rx="22" fill="#eef4ff" stroke="#2f63df" stroke-width="2"/><circle cx="58" cy="58" r="38" fill="#2f63df"/><text x="58" y="70" text-anchor="middle" class="num" font-size="28">07</text><text x="120" y="53" class="h" font-size="31">pandas 데이터 분석</text><text x="120" y="92" class="s" font-size="23">Ch21~22</text></g>
<g transform="translate(675 495)"><rect width="575" height="125" rx="22" fill="#effcf9" stroke="#15958f" stroke-width="2"/><circle cx="58" cy="58" r="38" fill="#15958f"/><text x="58" y="70" text-anchor="middle" class="num" font-size="28">08</text><text x="120" y="53" class="h" font-size="31">실전 프로젝트</text><text x="120" y="92" class="s" font-size="23">Ch23~24</text></g>
<path d="M625 557h40" stroke="#15958f" stroke-width="6"/><path d="M650 543l15 14-15 14" fill="none" stroke="#15958f" stroke-width="6"/>
</g>
<rect x="150" y="815" width="1140" height="58" rx="15" fill="#f8fbff" stroke="#b9cdfc"/><text x="720" y="852" text-anchor="middle" class="t" font-size="24" font-weight="700">개념 이해 → 라이브 코딩 → 실습 → AI 활용 → 미션</text>
</svg>